{"title":"Nautanki Saala (2013) 720p BRrip x264 AC3 5.1 Junaid-Zia (PimpRG","uid":8768956,"size":1565992098,"categoryP":"video","categoryS":"hd___movies","magnet":"?xt=urn:btih:a373d2b9728a3617e7856b1b513fb1b4deced35f&amp;dn=Nautanki+Saala+%282013%29+720p+BRrip+x264+AC3+5.1+Junaid-Zia+%28PimpRG&amp;tr=udp%3A%2F%2Ftracker.openbittorrent.com%3A80&amp;tr=udp%3A%2F%2Fopen.demonii.com%3A1337&amp;tr=udp%3A%2F%2Ftracker.coppersurfer.tk%3A6969&amp;tr=udp%3A%2F%2Fexodus.desync.com%3A6969","seeders":0,"leechers":1,"uploader":"junaidzia","files":13,"time":1375402730,"description":"[IMG]http://imageshack.us/a/img856/7307/0iky.jpg[/IMG]\n\n[b]General[/b]\nFormat                         : Matroska\nFormat version                 : Version 4 / Version 2\nFile size                      : 1.45 GiB\nDuration                       : 2h 4mn\nOverall bit rate               : 1 656 Kbps\nEncoded date                   : UTC 2013-08-01 12:43:24\n\n\n[b]Video[/b]\nID                             : 1\nFormat                         : AVC\nFormat/Info                    : Advanced Video Codec\nFormat profile                 : &lt;a class=&quot;__cf_email__&quot; href=&quot;/cdn-cgi/l/email-protection&quot; data-cfemail=&quot;347c5d535c7478001a04&quot;&gt;[email&amp;#160;protected]&lt;/a&gt;&lt;script cf-hash='f9e31' type=&quot;text/javascript&quot;&gt;\n/* &lt;![CDATA[ */!function(){try{var t=&quot;currentScript&quot;in document?document.currentScript:function(){for(var t=document.getElementsByTagName(&quot;script&quot;),e=t.length;e--;)if(t[e].getAttribute(&quot;cf-hash&quot;))return t[e]}();if(t&amp;&amp;t.previousSibling){var e,r,n,i,c=t.previousSibling,a=c.getAttribute(&quot;data-cfemail&quot;);if(a){for(e=&quot;&quot;,r=parseInt(a.substr(0,2),16),n=2;a.length-n;n+=2)i=parseInt(a.substr(n,2),16)^r,e+=String.fromCharCode(i);e=document.createTextNode(e),c.parentNode.replaceChild(e,c)}}}catch(u){}}();/* ]]&gt; */&lt;/script&gt;\nFormat settings, CABAC         : Yes\nFormat settings, ReFrames      : 8 frames\nCodec ID                       : V_MPEG4/ISO/AVC\nDuration                       : 2h 4mn\nBit rate                       : 1 399 Kbps\nWidth                          : 1 280 pixels\nHeight                         : 528 pixels\nDisplay aspect ratio           : 2.40:1\nFrame rate mode                : Constant\nFrame rate                     : 23.976 fps\nColor space                    : YUV\nChroma subsampling             : 4:2:0\nBit depth                      : 8 bits\nScan type                      : Progressive\nBits/(Pixel*Frame)             : 0.086\nStream size                    : 1.19 GiB (83%)\nTitle                          : Encoder Junaid Zia\n\nLanguage                       : Hindi\nDefault                        : Yes\nForced                         : No\n\n[b]Audio[/b]\nID                             : 2\nFormat                         : AC-3\nFormat/Info                    : Audio Coding 3\nMode extension                 : CM (complete main)\nFormat settings, Endianness    : Big\nCodec ID                       : A_AC3\nDuration                       : 2h 4mn\nBit rate mode                  : Constant\nBit rate                       : 256 Kbps\nChannel(s)                     : 6 channels\nChannel positions              : Front: L C R, Side: L R, LFE\nSampling rate                  : 48.0 KHz\nBit depth                      : 16 bits\nCompression mode               : Lossy\nStream size                    : 229 MiB (15%)\nTitle                          : Encoder Junaid Zia\nLanguage                       : Hindi\nDefault                        : Yes\nForced                         : No\nSubtitles File\t\t       : NO\n\n\n[IMG]http://imageshack.us/a/img850/2464/61od.jpg[/IMG]\n[IMG]http://imageshack.us/a/img197/9195/ld3a.jpg[/IMG]\n[IMG]http://imageshack.us/a/img577/950/qubp.jpg[/IMG]\n[IMG]http://imageshack.us/a/img825/839/ve2y.jpg[/IMG]\n[IMG]http://imageshack.us/a/img12/8344/bwav.jpg[/IMG]\n[IMG]http://imageshack.us/a/img12/8344/bwav.jpg[/IMG]\n[IMG]http://imageshack.us/a/img822/3880/kfso.jpg[/IMG]\n[IMG]http://imageshack.us/a/img441/5862/vzog.jpg[/IMG]\n[IMG]http://imageshack.us/a/img194/5550/yps5.jpg[/IMG]\n\n\n\nPimpRG Facebook Page:\n\nSujaidr Facebook Page:\n\n[b]Seed After Downloading, Remember Sharing is Caring.[/b] \n","torrent":{"xt":"urn:btih:a373d2b9728a3617e7856b1b513fb1b4deced35f","amp;dn":"Nautanki+Saala+%282013%29+720p+BRrip+x264+AC3+5.1+Junaid-Zia+%28PimpRG","amp;tr":["udp%3A%2F%2Ftracker.openbittorrent.com%3A80","udp%3A%2F%2Fopen.demonii.com%3A1337","udp%3A%2F%2Ftracker.coppersurfer.tk%3A6969","udp%3A%2F%2Fexodus.desync.com%3A6969"],"infoHash":"a373d2b9728a3617e7856b1b513fb1b4deced35f","infoHashBuffer":{"type":"Buffer","data":[163,115,210,185,114,138,54,23,231,133,107,27,81,63,177,180,222,206,211,95]},"announce":[],"urlList":[]}}